<?xml version="1.0" encoding="UTF-8"?>
<svg version="1.1" xmlns="http://www.w3.org/2000/svg" width="128" height="128">
<path d="M0 0 C2.69141724 1.90381258 4.88026872 3.91359739 7.015625 6.42578125 C7.716875 7.16828125 8.418125 7.91078125 9.140625 8.67578125 C13.82810662 15.55075429 15.01115747 23.21587065 14.015625 31.42578125 C12.99609375 33.75 12.99609375 33.75 12.015625 35.42578125 C10.365625 35.42578125 8.715625 35.42578125 7.015625 35.42578125 C6.0225271 32.66717597 6.0535611 31.23610077 6.640625 28.30078125 C7.27384007 21.75755884 5.46963565 15.85071985 1.453125 10.61328125 C-4.15774973 4.8098765 -10.44472061 2.14358107 -18.484375 1.92578125 C-31.52862447 2.50688498 -42.81613432 8.14350772 -51.984375 17.42578125 C-58.91876419 25.45789228 -61.95341572 34.35598102 -61.53125 44.95703125 C-60.27503121 52.92504756 -56.49825038 60.31393234 -49.95703125 65.1875 C-40.13851546 71.35080595 -29.14625519 75.38088653 -17.4765625 72.890625 C-10.93996337 71.10525539 -6.01556355 68.88458844 -1.609375 63.55078125 C0.15119261 60.16507432 0.37336458 58.18204684 0.015625 54.42578125 C-5.60518514 51.61537618 -12.01080412 54.06797981 -17.609375 55.86328125 C-36.23410622 61.67536958 -36.23410622 61.67536958 -44.984375 58.05078125 C-47.984375 56.42578125 -47.984375 56.42578125 -49.984375 54.42578125 C-50.4296875 51.55859375 -50.4296875 51.55859375 -49.984375 48.42578125 C-47.7890625 46.23046875 -47.7890625 46.23046875 -44.859375 44.30078125 C-43.90804687 43.65882812 -42.95671875 43.016875 -41.9765625 42.35546875 C-40.98914063 41.71867187 -40.00171875 41.081875 -38.984375 40.42578125 C-34.03514398 37.20334237 -29.31803742 33.73495103 -24.609375 30.17578125 C-23.50529297 29.34433594 -23.50529297 29.34433594 -22.37890625 28.49609375 C-20.57961811 27.1407858 -18.78147539 25.78398794 -16.984375 24.42578125 C-19.47896673 23.17848538 -21.28119587 23.25163188 -24.0703125 23.1796875 C-25.08351562 23.14681641 -26.09671875 23.11394531 -27.140625 23.08007812 C-29.27854404 23.01910592 -31.41657052 22.96178674 -33.5546875 22.90820312 C-34.57046875 22.87404297 -35.58625 22.83988281 -36.6328125 22.8046875 C-37.56270996 22.77963135 -38.49260742 22.7545752 -39.45068359 22.72875977 C-42.05533613 22.41729573 -43.73679375 21.7432948 -45.984375 20.42578125 C-46.109375 18.05078125 -46.109375 18.05078125 -45.984375 15.42578125 C-43.984375 13.42578125 -43.984375 13.42578125 -40.1171875 13.35058594 C-38.44739209 13.42151582 -36.77809118 13.50473661 -35.109375 13.59765625 C-34.22910645 13.64013489 -33.34883789 13.68261353 -32.44189453 13.72637939 C-30.57884015 13.81897891 -28.71604113 13.91684204 -26.85351562 14.01953125 C-23.99663396 14.17511364 -21.13930872 14.30943524 -18.28125 14.44140625 C-16.47389262 14.53388073 -14.66659787 14.62758931 -12.859375 14.72265625 C-12.00102051 14.76235535 -11.14266602 14.80205444 -10.25830078 14.84295654 C-4.21452341 15.19563284 -4.21452341 15.19563284 -1.984375 17.42578125 C-2.07765672 20.87720484 -2.79430045 22.22171557 -5.16015625 24.76171875 C-8.07279475 27.50918688 -11.04950166 30.15759302 -14.109375 32.73828125 C-14.67342041 33.21467041 -15.23746582 33.69105957 -15.81860352 34.18188477 C-22.86127604 40.0703772 -30.28400168 45.4309445 -37.984375 50.42578125 C-30.54927263 50.95267827 -24.68973639 50.02254113 -17.7109375 47.3984375 C-11.13553312 45.05277032 -4.34240725 44.28531747 2.328125 46.55078125 C5.67841077 48.88818993 7.26702419 50.71874754 9.015625 54.42578125 C9.015625 60.2055883 7.73610511 64.87281802 4.015625 69.42578125 C-3.36462373 76.70059785 -10.97723623 79.48958165 -21.234375 79.80078125 C-32.98223812 79.46907688 -43.1193523 76.87026844 -52.984375 70.42578125 C-53.87576172 69.85730469 -53.87576172 69.85730469 -54.78515625 69.27734375 C-61.20247419 64.60115858 -65.65836188 56.11665734 -66.984375 48.42578125 C-68.08693161 34.33310313 -64.0141296 24.53374094 -55.46484375 13.45703125 C-42.87532009 -0.56674195 -17.07644528 -10.03665244 0 0 Z " fill="#04929A" transform="translate(84.984375,29.57421875)"/>
<path d="M0 0 C0.66 0.33 1.32 0.66 2 1 C-2.62 5.62 -7.24 10.24 -12 15 C-12 10.09687565 -8.29800369 7.38658643 -5 4 C-3.37458956 2.61667196 -1.72614587 1.25537882 0 0 Z " fill="#078A91" transform="translate(38,36)"/>
</svg>
